<svg xmlns="http://www.w3.org/2000/svg" viewBox="0 0 511.999 511.999" style="enable-background:new 0 0 511.999 511.999" xml:space="preserve"><path style="fill:#55abe0" d="M255.999 7.541c-137.023 0-248.5 111.457-248.5 248.457 0 136.869 111.382 248.46 248.499 248.46 137.025 0 248.501-111.459 248.501-248.46.002-136.797-111.322-248.457-248.5-248.457zM477.502 256c0 64.51-27.897 124.223-74.795 165.768v.002C369 452.596 323.242 472.545 274.72 476.664 144.527 487.553 34.498 384.417 34.498 256v-.001s-2.503-49.777 25.284-102.659c65.97-125.534 228.402-156.134 335.41-69.475 1.043.805 6.66 5.545 7.513 6.364v.001a223.892 223.892 0 0 1 19.092 19.088v.001C482.131 177.4 477.502 255.999 477.502 256z"/><path style="fill:#4a94cc" d="M34.498 256c0-.001-.377-18.268 3.674-40.23C61.137 91.51 161.02 13.895 269.752 7.928a250.85 250.85 0 0 0-13.754-.388C118.976 7.541 7.499 118.998 7.499 255.998c0 141.56 119.126 255.92 262.27 248.073C137.071 496.794 34.498 385.578 34.498 256z"/><path style="fill:#55abe0" d="M442.597 256c.03-.001-.058-4.599-.059-4.629-1.006-43.671-17.565-85.896-46.866-118.939a188.042 188.042 0 0 0-16.084-16.081l.002-.001c-17.453-14.288-33.204-26.212-61.16-36.164C199.922 37.991 75.841 123.19 69.632 246.78a420.89 420.89 0 0 0-.17 4.596c-.001.028-.087 4.624-.059 4.624v.001c0 76.423 46.889 146.255 120.191 174.345 66.86 25.481 137.175 10.753 189.996-34.697h-.002a188.186 188.186 0 0 0 16.084-16.081c9.999 0 0 9.998 0-.001 30.199-34.026 46.925-77.832 46.925-123.567z"/><path style="fill:#4a94cc" d="M142.396 256c0-.001-1.701-37.409 17.254-78.305.606-1.291 1.14-2.424 1.865-3.896.64-1.291 1.251-2.509 1.953-3.851l.229-.433c26.226-49.909 73.89-85.652 128.8-96.487C180.074 50.853 75.314 133.679 69.632 246.78a420.89 420.89 0 0 0-.17 4.596c-.001.028-.087 4.624-.059 4.624v.001c0 116.957 107.546 206 223.094 182.968C207.585 422.276 142.396 346.641 142.396 256z"/><path style="fill:#f5f5f5" d="M313.995 165.508c-8.284 0-14.998 6.715-14.998 14.998V241h-85.991v-60.494c0-8.283-6.716-14.998-14.998-14.998-8.284 0-14.998 6.715-14.998 14.998V331.49c0 8.283 6.714 14.998 14.998 14.998 8.282 0 14.998-6.715 14.998-14.998v-60.494h85.991v60.494c0 8.283 6.714 14.998 14.998 14.998 8.282 0 14.998-6.715 14.998-14.998V180.507c0-8.283-6.715-14.999-14.998-14.999z"/><path d="M255.999.042C114.841.042 0 114.863 0 255.998c0 141.278 114.722 255.96 255.999 255.96C397.158 511.958 512 397.135 512 255.998 512 114.722 397.278.042 255.999.042zm0 496.917c-132.924 0-241-107.96-241-240.961 0-132.865 108.112-240.958 241-240.958 132.929 0 241.002 107.968 241.002 240.958.001 132.866-108.112 240.961-241.002 240.961z"/><path d="M407.601 84.546c-59.662-52.744-142.879-72.13-224.41-45.641C-7.924 103.232-27.888 365.33 149.798 458.801c245.368 129.444 455.26-203.899 257.803-374.255zm-57.369 363.522c-183.249 90.037-379.924-107.8-283.811-291.24C131.719 32.577 294.455 4.471 397.663 95.781c1 .25 14.313 13.46 21.611 22.077 89.654 106.464 56.747 267.45-69.042 330.21z"/><path d="m381.297 107.91.021.017c-20.966-18.636-53.236-35.551-87.714-42.325-.221-.111-6.745-1.209-7.006-1.25-58.954-9.347-120.413 8.545-165.657 52.442a7.498 7.498 0 0 0-.16 10.604 7.498 7.498 0 0 0 10.604.16c69.739-67.663 177.339-65.384 243.169-5.648 153.256 138.66-9.581 388.222-198.136 294.473-97.852-48.783-130.411-173.09-66.885-263.25a7.499 7.499 0 0 0-1.811-10.45 7.499 7.499 0 0 0-10.45 1.811C-8.098 294.05 134.134 490.397 306.413 443.412c151.392-40.716 193.859-235.715 74.884-335.502z"/><path d="M198.007 158.009c-12.405 0-22.498 10.092-22.498 22.498v150.984c0 12.405 10.093 22.498 22.498 22.498s22.498-10.093 22.498-22.498v-52.995h70.993v52.995c0 12.405 10.093 22.498 22.498 22.498s22.498-10.093 22.498-22.498V318.59c0-4.143-3.357-7.499-7.499-7.499s-7.499 3.357-7.499 7.499v12.902c0 4.136-3.364 7.499-7.499 7.499s-7.499-3.364-7.499-7.499v-60.494a7.498 7.498 0 0 0-7.499-7.499h-85.991a7.498 7.498 0 0 0-7.499 7.499v60.494c0 4.136-3.364 7.499-7.499 7.499s-7.499-3.364-7.499-7.499V180.507c0-4.136 3.364-7.499 7.499-7.499s7.499 3.364 7.499 7.499v60.494a7.498 7.498 0 0 0 7.499 7.499h85.991a7.498 7.498 0 0 0 7.499-7.499v-60.494c0-4.136 3.364-7.499 7.499-7.499s7.499 3.364 7.499 7.499v103.086c0 4.143 3.357 7.499 7.499 7.499s7.499-3.357 7.499-7.499V180.507c0-12.406-10.093-22.498-22.498-22.498s-22.498 10.092-22.498 22.498v52.995h-70.993v-52.995c-.001-12.406-10.093-22.498-22.498-22.498z"/></svg>